<svg width="25" height="25" viewBox="0 0 25 25" fill="none" xmlns="http://www.w3.org/2000/svg">
<path d="M22.9166 3.125H2.08331V9.375H3.12498V20.8333C3.12498 21.3859 3.34447 21.9158 3.73517 22.3065C4.12587 22.6972 4.65578 22.9167 5.20831 22.9167H19.7916C20.3442 22.9167 20.8741 22.6972 21.2648 22.3065C21.6555 21.9158 21.875 21.3859 21.875 20.8333V9.375H22.9166V3.125ZM4.16665 5.20833H20.8333V7.29167H4.16665V5.20833ZM19.7916 20.8333H5.20831V9.375H19.7916V20.8333ZM9.37498 11.4583H15.625C15.625 12.0109 15.4055 12.5408 15.0148 12.9315C14.6241 13.3222 14.0942 13.5417 13.5416 13.5417H11.4583C10.9058 13.5417 10.3759 13.3222 9.98517 12.9315C9.59447 12.5408 9.37498 12.0109 9.37498 11.4583Z" fill="#222F33"/>
</svg>
