<svg width="25" height="25" viewBox="0 0 25 25" fill="none" xmlns="http://www.w3.org/2000/svg">
<path d="M5.20837 3.12516C5.20837 2.8489 5.31812 2.58394 5.51347 2.38859C5.70882 2.19324 5.97377 2.0835 6.25004 2.0835H18.75C19.0263 2.0835 19.2913 2.19324 19.4866 2.38859C19.682 2.58394 19.7917 2.8489 19.7917 3.12516V21.8752C19.7917 22.1514 19.682 22.4164 19.4866 22.6117C19.2913 22.8071 19.0263 22.9168 18.75 22.9168H6.25004C5.97377 22.9168 5.70882 22.8071 5.51347 22.6117C5.31812 22.4164 5.20837 22.1514 5.20837 21.8752V3.12516Z" stroke="#222F33" stroke-width="2.08333"/>
<path d="M8.85425 6.25H16.1459" stroke="#222F33" stroke-width="2.08333" stroke-linecap="round" stroke-linejoin="round"/>
<path d="M8.85417 11.9793C9.42946 11.9793 9.89583 11.513 9.89583 10.9377C9.89583 10.3624 9.42946 9.896 8.85417 9.896C8.27887 9.896 7.8125 10.3624 7.8125 10.9377C7.8125 11.513 8.27887 11.9793 8.85417 11.9793Z" fill="#222F33"/>
<path d="M8.85417 15.1043C9.42946 15.1043 9.89583 14.638 9.89583 14.0627C9.89583 13.4874 9.42946 13.021 8.85417 13.021C8.27887 13.021 7.8125 13.4874 7.8125 14.0627C7.8125 14.638 8.27887 15.1043 8.85417 15.1043Z" fill="#222F33"/>
<path d="M8.85417 18.2293C9.42946 18.2293 9.89583 17.763 9.89583 17.1877C9.89583 16.6124 9.42946 16.146 8.85417 16.146C8.27887 16.146 7.8125 16.6124 7.8125 17.1877C7.8125 17.763 8.27887 18.2293 8.85417 18.2293Z" fill="#222F33"/>
<path d="M12.5 11.9793C13.0753 11.9793 13.5417 11.513 13.5417 10.9377C13.5417 10.3624 13.0753 9.896 12.5 9.896C11.9247 9.896 11.4584 10.3624 11.4584 10.9377C11.4584 11.513 11.9247 11.9793 12.5 11.9793Z" fill="#222F33"/>
<path d="M12.5 15.1043C13.0753 15.1043 13.5417 14.638 13.5417 14.0627C13.5417 13.4874 13.0753 13.021 12.5 13.021C11.9247 13.021 11.4584 13.4874 11.4584 14.0627C11.4584 14.638 11.9247 15.1043 12.5 15.1043Z" fill="#222F33"/>
<path d="M12.5 18.2293C13.0753 18.2293 13.5417 17.763 13.5417 17.1877C13.5417 16.6124 13.0753 16.146 12.5 16.146C11.9247 16.146 11.4584 16.6124 11.4584 17.1877C11.4584 17.763 11.9247 18.2293 12.5 18.2293Z" fill="#222F33"/>
<path d="M16.1459 11.9793C16.7212 11.9793 17.1876 11.513 17.1876 10.9377C17.1876 10.3624 16.7212 9.896 16.1459 9.896C15.5706 9.896 15.1042 10.3624 15.1042 10.9377C15.1042 11.513 15.5706 11.9793 16.1459 11.9793Z" fill="#222F33"/>
<path d="M16.1459 15.1043C16.7212 15.1043 17.1876 14.638 17.1876 14.0627C17.1876 13.4874 16.7212 13.021 16.1459 13.021C15.5706 13.021 15.1042 13.4874 15.1042 14.0627C15.1042 14.638 15.5706 15.1043 16.1459 15.1043Z" fill="#222F33"/>
<path d="M16.1459 18.2293C16.7212 18.2293 17.1876 17.763 17.1876 17.1877C17.1876 16.6124 16.7212 16.146 16.1459 16.146C15.5706 16.146 15.1042 16.6124 15.1042 17.1877C15.1042 17.763 15.5706 18.2293 16.1459 18.2293Z" fill="#222F33"/>
</svg>
