<svg width="39" height="38" viewBox="0 0 39 38" fill="none" xmlns="http://www.w3.org/2000/svg">
<rect width="39" height="38" rx="10" fill="#222F33"/>
<rect x="5" y="31" width="29" height="3" rx="1.5" fill="white"/>
<path d="M14.4999 22.6969L14.4999 8.60193C14.4999 8.45038 14.5631 8.30504 14.6756 8.19788C14.7881 8.09072 14.9407 8.03052 15.0999 8.03052L23.8998 8.03052C23.9786 8.03052 24.0566 8.0453 24.1294 8.07401C24.2022 8.10273 24.2684 8.14482 24.3241 8.19788C24.3798 8.25094 24.424 8.31394 24.4541 8.38326C24.4843 8.45259 24.4998 8.52689 24.4998 8.60193L24.4998 22.6969C24.4998 22.7719 24.4843 22.8462 24.4541 22.9155C24.424 22.9849 24.3798 23.0479 24.3241 23.1009C24.2684 23.154 24.2022 23.1961 24.1294 23.2248C24.0566 23.2535 23.9786 23.2683 23.8998 23.2683L15.0999 23.2683C14.9407 23.2683 14.7881 23.2081 14.6756 23.1009C14.5631 22.9938 14.4999 22.8484 14.4999 22.6969V22.6969Z" stroke="white" stroke-width="2.2" stroke-linecap="round" stroke-linejoin="round"/>
<path d="M21.5 23.2693L21.5 25.6502" stroke="white" stroke-width="2.2" stroke-linecap="round" stroke-linejoin="round"/>
<path d="M17.4999 23.2693L17.4999 25.6502" stroke="white" stroke-width="2.2" stroke-linecap="round" stroke-linejoin="round"/>
<path d="M21.5 8.03105L21.5 5.65015" stroke="white" stroke-width="2.2" stroke-linecap="round" stroke-linejoin="round"/>
<path d="M17.4999 8.03105L17.4999 5.65015" stroke="white" stroke-width="2.2" stroke-linecap="round" stroke-linejoin="round"/>
<path d="M14.5 15.6499L12 15.6499" stroke="white" stroke-width="2.2" stroke-linecap="round" stroke-linejoin="round"/>
<path d="M27 15.6499L24.5 15.6499" stroke="white" stroke-width="2.2" stroke-linecap="round" stroke-linejoin="round"/>
<path d="M14.5 10.4124L12 10.4124" stroke="white" stroke-width="2.2" stroke-linecap="round" stroke-linejoin="round"/>
<path d="M27 10.4124L24.5 10.4124" stroke="white" stroke-width="2.2" stroke-linecap="round" stroke-linejoin="round"/>
<path d="M14.5 20.8877L12 20.8877" stroke="white" stroke-width="2.2" stroke-linecap="round" stroke-linejoin="round"/>
<path d="M27 20.8877L24.5 20.8877" stroke="white" stroke-width="2.2" stroke-linecap="round" stroke-linejoin="round"/>
</svg>
