<svg width="25" height="25" viewBox="0 0 25 25" fill="none" xmlns="http://www.w3.org/2000/svg">
<path d="M24.5432 10.4709L22.1416 5.87169C21.9506 5.50994 21.6259 5.23703 21.2368 5.11108C20.8476 4.98513 20.4246 5.0161 20.0579 5.19738L17.7844 6.3341H16.1841L12.9618 4.87589C12.6219 4.72228 12.2384 4.69516 11.8803 4.79943L7.12721 6.18517L4.94215 5.09269C4.57541 4.91153 4.15245 4.88063 3.76328 5.00657C3.37411 5.13251 3.04944 5.40534 2.85836 5.76701L0.456699 10.3663C0.360676 10.5503 0.302246 10.7515 0.284819 10.9582C0.267391 11.165 0.291315 11.3731 0.355194 11.5705C0.419074 11.768 0.521629 11.9507 0.656877 12.108C0.792125 12.2654 0.957356 12.3942 1.14293 12.487L3.48668 13.6589L8.76285 17.7847C8.93512 17.9197 9.134 18.0169 9.34644 18.0696L15.0063 19.4847C15.1291 19.5153 15.2552 19.5308 15.3818 19.5308C15.7971 19.5308 16.1956 19.3665 16.4902 19.0737L20.0837 15.4802C20.0876 15.4764 20.0909 15.4722 20.0946 15.4684L20.1091 15.4527C20.1144 15.4469 20.1199 15.4414 20.1251 15.4355L21.5847 13.7278L23.857 12.5917C24.0426 12.4989 24.2078 12.37 24.3431 12.2127C24.4783 12.0553 24.5809 11.8726 24.6447 11.6752C24.7086 11.4778 24.7325 11.2696 24.7151 11.0628C24.6977 10.8561 24.6392 10.6549 24.5432 10.4709V10.4709ZM19.4066 13.8712L15.6938 11.171C15.5587 11.0727 15.3956 11.0203 15.2286 11.0216C15.0615 11.0228 14.8992 11.0776 14.7656 11.1778L13.5156 12.1153C13.1091 12.4178 12.616 12.5811 12.1093 12.5811C11.6027 12.5811 11.1096 12.4178 10.7031 12.1153L10.1738 11.7183L13.9955 7.8965H16.0115L16.0151 7.89669L16.0177 7.8965H17.4953L20.1568 12.9936L19.4066 13.8712ZM4.24351 6.49015L5.97066 7.35382L3.569 11.953L1.84176 11.0895L4.24351 6.49015ZM15.3853 17.9689L9.72545 16.5538L4.89977 12.7804L7.55953 7.68664L12.3177 6.29953L13.0697 6.63976C13.0063 6.6859 12.9464 6.73669 12.8906 6.79171L9.06881 10.6135C8.91053 10.7718 8.78811 10.9622 8.70984 11.172C8.63157 11.3817 8.59927 11.6058 8.61515 11.8291C8.63102 12.0524 8.69468 12.2696 8.80183 12.4662C8.90898 12.6627 9.05711 12.834 9.23619 12.9683L9.76559 13.3652C10.443 13.8692 11.2649 14.1414 12.1093 14.1414C12.9537 14.1414 13.7756 13.8692 14.4531 13.3652L15.2415 12.7739L18.3323 15.0218L15.3853 17.9689ZM23.1582 11.1942L21.4309 12.0578L19.0293 7.45841L20.7565 6.59494L23.159 11.1937L23.1582 11.1942ZM11.6953 20.9767C11.6705 21.0763 11.6263 21.17 11.5653 21.2525C11.5043 21.335 11.4275 21.4046 11.3396 21.4574C11.2516 21.5102 11.154 21.5451 11.0525 21.5601C10.951 21.5752 10.8475 21.57 10.748 21.545L7.80465 20.8093C7.56586 20.7492 7.34452 20.6339 7.15846 20.4727L4.95621 18.5583C4.80079 18.4221 4.70566 18.2299 4.69165 18.0237C4.67764 17.8175 4.74588 17.6142 4.88145 17.4582C5.01701 17.3023 5.20885 17.2064 5.41497 17.1915C5.62109 17.1767 5.82469 17.2441 5.98121 17.379L8.18365 19.2934L11.127 20.0293C11.328 20.0796 11.5008 20.2076 11.6074 20.3852C11.714 20.5629 11.7456 20.7756 11.6954 20.9766L11.6953 20.9767Z" fill="#222F33"/>
</svg>
