<svg width="149" height="35" viewBox="0 0 149 35" fill="none" xmlns="http://www.w3.org/2000/svg">
<path d="M85.5416 21.1579L85.5416 7.59126C85.5416 7.44539 85.5995 7.3055 85.7027 7.20235C85.8058 7.09921 85.9457 7.04126 86.0916 7.04126L94.1582 7.04126C94.2305 7.04126 94.302 7.05549 94.3687 7.08313C94.4354 7.11077 94.4961 7.15128 94.5471 7.20235C94.5982 7.25342 94.6387 7.31405 94.6664 7.38078C94.694 7.44751 94.7082 7.51903 94.7082 7.59126L94.7082 21.1579C94.7082 21.2302 94.694 21.3017 94.6664 21.3684C94.6387 21.4351 94.5982 21.4958 94.5471 21.5468C94.4961 21.5979 94.4354 21.6384 94.3687 21.6661C94.302 21.6937 94.2305 21.7079 94.1582 21.7079L86.0916 21.7079C85.9457 21.7079 85.8058 21.65 85.7027 21.5468C85.5995 21.4437 85.5416 21.3038 85.5416 21.1579V21.1579Z" stroke="#222F33" stroke-width="2.2" stroke-linecap="round" stroke-linejoin="round"/>
<path d="M91.9584 21.7087L91.9584 24.0004" stroke="#222F33" stroke-width="2.2" stroke-linecap="round" stroke-linejoin="round"/>
<path d="M88.2916 21.7087L88.2916 24.0004" stroke="#222F33" stroke-width="2.2" stroke-linecap="round" stroke-linejoin="round"/>
<path d="M91.9584 7.04167L91.9584 4.75" stroke="#222F33" stroke-width="2.2" stroke-linecap="round" stroke-linejoin="round"/>
<path d="M88.2916 7.04167L88.2916 4.75" stroke="#222F33" stroke-width="2.2" stroke-linecap="round" stroke-linejoin="round"/>
<path d="M85.5417 14.375L83.25 14.375" stroke="#222F33" stroke-width="2.2" stroke-linecap="round" stroke-linejoin="round"/>
<path d="M97.0001 14.375L94.7084 14.375" stroke="#222F33" stroke-width="2.2" stroke-linecap="round" stroke-linejoin="round"/>
<path d="M85.5417 9.33374L83.25 9.33374" stroke="#222F33" stroke-width="2.2" stroke-linecap="round" stroke-linejoin="round"/>
<path d="M97.0001 9.33374L94.7084 9.33374" stroke="#222F33" stroke-width="2.2" stroke-linecap="round" stroke-linejoin="round"/>
<path d="M85.5417 19.4163L83.25 19.4163" stroke="#222F33" stroke-width="2.2" stroke-linecap="round" stroke-linejoin="round"/>
<path d="M97.0001 19.4163L94.7084 19.4163" stroke="#222F33" stroke-width="2.2" stroke-linecap="round" stroke-linejoin="round"/>
<path d="M10.362 19.47C10.7433 19.47 11.0587 19.602 11.308 19.866C11.572 20.1153 11.704 20.4087 11.704 20.746C11.704 21.1127 11.572 21.4133 11.308 21.648C11.0587 21.8827 10.7433 22 10.362 22H2.992C2.61067 22 2.288 21.8753 2.024 21.626C1.77467 21.362 1.65 21.0393 1.65 20.658V7.942C1.65 7.56067 1.77467 7.24533 2.024 6.996C2.288 6.732 2.61067 6.6 2.992 6.6H10.362C10.7433 6.6 11.0587 6.72467 11.308 6.974C11.572 7.20867 11.704 7.51667 11.704 7.898C11.704 8.26467 11.5793 8.56533 11.33 8.8C11.0807 9.02 10.758 9.13 10.362 9.13H4.4V12.87H9.372C9.75333 12.87 10.0687 12.9947 10.318 13.244C10.582 13.4787 10.714 13.7867 10.714 14.168C10.714 14.5347 10.5893 14.8353 10.34 15.07C10.0907 15.29 9.768 15.4 9.372 15.4H4.4V19.47H10.362ZM22.7318 19.426C23.1132 19.426 23.4285 19.5507 23.6778 19.8C23.9418 20.0347 24.0738 20.3427 24.0738 20.724C24.0738 21.0907 23.9418 21.3987 23.6778 21.648C23.4285 21.8827 23.1132 22 22.7318 22H15.5818C15.2005 22 14.8778 21.8753 14.6138 21.626C14.3645 21.362 14.2398 21.0393 14.2398 20.658V7.942C14.2398 7.56067 14.3718 7.24533 14.6358 6.996C14.8998 6.732 15.2372 6.6 15.6478 6.6C16.0145 6.6 16.3298 6.732 16.5938 6.996C16.8578 7.24533 16.9898 7.56067 16.9898 7.942V19.426H22.7318ZM35.3054 19.47C35.6867 19.47 36.002 19.602 36.2514 19.866C36.5154 20.1153 36.6474 20.4087 36.6474 20.746C36.6474 21.1127 36.5154 21.4133 36.2514 21.648C36.002 21.8827 35.6867 22 35.3054 22H27.9354C27.554 22 27.2314 21.8753 26.9674 21.626C26.718 21.362 26.5934 21.0393 26.5934 20.658V7.942C26.5934 7.56067 26.718 7.24533 26.9674 6.996C27.2314 6.732 27.554 6.6 27.9354 6.6H35.3054C35.6867 6.6 36.002 6.72467 36.2514 6.974C36.5154 7.20867 36.6474 7.51667 36.6474 7.898C36.6474 8.26467 36.5227 8.56533 36.2734 8.8C36.024 9.02 35.7014 9.13 35.3054 9.13H29.3434V12.87H34.3154C34.6967 12.87 35.012 12.9947 35.2614 13.244C35.5254 13.4787 35.6574 13.7867 35.6574 14.168C35.6574 14.5347 35.5327 14.8353 35.2834 15.07C35.034 15.29 34.7114 15.4 34.3154 15.4H29.3434V19.47H35.3054ZM49.9632 7.348C50.4179 7.58267 50.6452 7.95667 50.6452 8.47C50.6452 8.778 50.5352 9.07867 50.3152 9.372C50.0805 9.68 49.7799 9.834 49.4132 9.834C49.1639 9.834 48.9145 9.768 48.6652 9.636C47.9465 9.29867 47.1692 9.13 46.3332 9.13C45.3065 9.13 44.4119 9.35 43.6492 9.79C42.8865 10.2153 42.2999 10.824 41.8892 11.616C41.4785 12.3933 41.2732 13.288 41.2732 14.3C41.2732 16.0307 41.7352 17.3433 42.6592 18.238C43.5979 19.1327 44.8225 19.58 46.3332 19.58C47.2279 19.58 48.0052 19.4113 48.6652 19.074C48.9292 18.9567 49.1639 18.898 49.3692 18.898C49.7505 18.898 50.0732 19.0593 50.3372 19.382C50.5572 19.6607 50.6672 19.9613 50.6672 20.284C50.6672 20.5187 50.6085 20.7313 50.4912 20.922C50.3739 21.1127 50.2052 21.2593 49.9852 21.362C48.8412 21.934 47.6239 22.22 46.3332 22.22C44.8959 22.22 43.5759 21.9193 42.3732 21.318C41.1705 20.702 40.2099 19.8 39.4912 18.612C38.7725 17.424 38.4132 15.9867 38.4132 14.3C38.4132 12.804 38.7505 11.462 39.4252 10.274C40.1145 9.086 41.0605 8.162 42.2632 7.502C43.4659 6.82733 44.8225 6.49 46.3332 6.49C47.6385 6.49 48.8485 6.776 49.9632 7.348ZM63.0962 6.6C63.4922 6.6 63.8148 6.71733 64.0642 6.952C64.3135 7.18667 64.4382 7.49467 64.4382 7.876C64.4382 8.25733 64.3135 8.56533 64.0642 8.8C63.8148 9.02 63.4922 9.13 63.0962 9.13H59.6422V20.658C59.6422 21.0393 59.5028 21.362 59.2242 21.626C58.9455 21.8753 58.6008 22 58.1902 22C57.7795 22 57.4422 21.8753 57.1782 21.626C56.9142 21.362 56.7822 21.0393 56.7822 20.658V9.13H53.3282C52.9322 9.13 52.6095 9.01267 52.3602 8.778C52.1108 8.54333 51.9862 8.23533 51.9862 7.854C51.9862 7.48733 52.1108 7.18667 52.3602 6.952C52.6242 6.71733 52.9468 6.6 53.3282 6.6H63.0962ZM78.8257 19.844C79.0163 19.9613 79.163 20.1153 79.2657 20.306C79.383 20.4967 79.4417 20.6947 79.4417 20.9C79.4417 21.164 79.3537 21.406 79.1777 21.626C78.9577 21.89 78.6203 22.022 78.1657 22.022C77.8137 22.022 77.491 21.9413 77.1977 21.78C76.1417 21.1787 75.6137 19.954 75.6137 18.106C75.6137 17.578 75.4377 17.16 75.0857 16.852C74.7483 16.544 74.257 16.39 73.6117 16.39H69.4977V20.658C69.4977 21.054 69.3877 21.3767 69.1677 21.626C68.9623 21.8753 68.6837 22 68.3317 22C67.9063 22 67.5323 21.8753 67.2097 21.626C66.9017 21.362 66.7477 21.0393 66.7477 20.658V7.942C66.7477 7.56067 66.8723 7.24533 67.1217 6.996C67.3857 6.732 67.7083 6.6 68.0897 6.6H74.4257C75.1883 6.6 75.907 6.80533 76.5817 7.216C77.2563 7.62667 77.7917 8.19133 78.1877 8.91C78.5983 9.62867 78.8037 10.4353 78.8037 11.33C78.8037 12.0633 78.6057 12.782 78.2097 13.486C77.8137 14.1753 77.3003 14.7253 76.6697 15.136C77.5937 15.7813 78.0997 16.6467 78.1877 17.732C78.2317 17.9667 78.2537 18.194 78.2537 18.414C78.3123 18.8687 78.371 19.1987 78.4297 19.404C78.4883 19.5947 78.6203 19.7413 78.8257 19.844ZM74.3157 14.124C74.5797 14.124 74.8363 13.9993 75.0857 13.75C75.335 13.5007 75.5403 13.1707 75.7017 12.76C75.863 12.3347 75.9437 11.88 75.9437 11.396C75.9437 10.9853 75.863 10.6113 75.7017 10.274C75.5403 9.922 75.335 9.64333 75.0857 9.438C74.8363 9.23267 74.5797 9.13 74.3157 9.13H69.4977V14.124H74.3157Z" fill="#222F33"/>
<rect x="1" y="32" width="147" height="3" rx="1.5" fill="#222F33"/>
<path d="M112.332 6.6C112.684 6.6 112.97 6.71733 113.19 6.952C113.41 7.18667 113.52 7.48 113.52 7.832V20.658C113.52 21.0393 113.388 21.362 113.124 21.626C112.875 21.8753 112.559 22 112.178 22C111.973 22 111.767 21.9707 111.562 21.912C111.371 21.8387 111.232 21.7433 111.144 21.626L103.07 11.374V20.768C103.07 21.12 102.953 21.4133 102.718 21.648C102.498 21.8827 102.205 22 101.838 22C101.486 22 101.2 21.8827 100.98 21.648C100.76 21.4133 100.65 21.12 100.65 20.768V7.942C100.65 7.56067 100.775 7.24533 101.024 6.996C101.288 6.732 101.611 6.6 101.992 6.6C102.212 6.6 102.425 6.644 102.63 6.732C102.85 6.82 103.011 6.93733 103.114 7.084L111.122 17.292V7.832C111.122 7.48 111.232 7.18667 111.452 6.952C111.687 6.71733 111.98 6.6 112.332 6.6ZM119.578 20.658C119.578 21.0393 119.438 21.362 119.16 21.626C118.881 21.8753 118.558 22 118.192 22C117.796 22 117.466 21.8753 117.202 21.626C116.952 21.362 116.828 21.0393 116.828 20.658V7.942C116.828 7.56067 116.96 7.24533 117.224 6.996C117.488 6.732 117.825 6.6 118.236 6.6C118.602 6.6 118.918 6.732 119.182 6.996C119.446 7.24533 119.578 7.56067 119.578 7.942V20.658ZM133.666 7.348C134.121 7.58267 134.348 7.95667 134.348 8.47C134.348 8.778 134.238 9.07867 134.018 9.372C133.784 9.68 133.483 9.834 133.116 9.834C132.867 9.834 132.618 9.768 132.368 9.636C131.65 9.29867 130.872 9.13 130.036 9.13C129.01 9.13 128.115 9.35 127.352 9.79C126.59 10.2153 126.003 10.824 125.592 11.616C125.182 12.3933 124.976 13.288 124.976 14.3C124.976 16.0307 125.438 17.3433 126.362 18.238C127.301 19.1327 128.526 19.58 130.036 19.58C130.931 19.58 131.708 19.4113 132.368 19.074C132.632 18.9567 132.867 18.898 133.072 18.898C133.454 18.898 133.776 19.0593 134.04 19.382C134.26 19.6607 134.37 19.9613 134.37 20.284C134.37 20.5187 134.312 20.7313 134.194 20.922C134.077 21.1127 133.908 21.2593 133.688 21.362C132.544 21.934 131.327 22.22 130.036 22.22C128.599 22.22 127.279 21.9193 126.076 21.318C124.874 20.702 123.913 19.8 123.194 18.612C122.476 17.424 122.116 15.9867 122.116 14.3C122.116 12.804 122.454 11.462 123.128 10.274C123.818 9.086 124.764 8.162 125.966 7.502C127.169 6.82733 128.526 6.49 130.036 6.49C131.342 6.49 132.552 6.776 133.666 7.348ZM141.629 22.22C140.573 22.22 139.635 22.088 138.813 21.824C137.992 21.56 137.222 21.1127 136.503 20.482C136.107 20.13 135.909 19.7413 135.909 19.316C135.909 18.9787 136.034 18.6853 136.283 18.436C136.533 18.172 136.833 18.04 137.185 18.04C137.464 18.04 137.713 18.128 137.933 18.304C138.52 18.788 139.092 19.14 139.649 19.36C140.207 19.58 140.867 19.69 141.629 19.69C142.451 19.69 143.155 19.5067 143.741 19.14C144.343 18.7733 144.643 18.3187 144.643 17.776C144.643 17.116 144.35 16.6027 143.763 16.236C143.177 15.8547 142.245 15.5687 140.969 15.378C137.757 14.9087 136.151 13.4127 136.151 10.89C136.151 9.966 136.393 9.16667 136.877 8.492C137.361 7.80267 138.021 7.282 138.857 6.93C139.693 6.56333 140.625 6.38 141.651 6.38C142.575 6.38 143.441 6.51933 144.247 6.798C145.069 7.07667 145.751 7.44333 146.293 7.898C146.719 8.23533 146.931 8.624 146.931 9.064C146.931 9.40133 146.807 9.702 146.557 9.966C146.308 10.2153 146.015 10.34 145.677 10.34C145.457 10.34 145.259 10.274 145.083 10.142C144.702 9.834 144.167 9.55533 143.477 9.306C142.803 9.042 142.194 8.91 141.651 8.91C140.727 8.91 140.009 9.086 139.495 9.438C138.997 9.77533 138.747 10.2227 138.747 10.78C138.747 11.4107 139.004 11.8873 139.517 12.21C140.045 12.5327 140.867 12.7967 141.981 13.002C143.243 13.222 144.247 13.508 144.995 13.86C145.758 14.1973 146.33 14.6667 146.711 15.268C147.093 15.8547 147.283 16.6393 147.283 17.622C147.283 18.546 147.019 19.36 146.491 20.064C145.978 20.7533 145.289 21.2887 144.423 21.67C143.558 22.0367 142.627 22.22 141.629 22.22Z" fill="#222F33"/>
</svg>
