<svg width="25" height="25" viewBox="0 0 25 25" fill="none" xmlns="http://www.w3.org/2000/svg">
<path d="M10.4166 18.7502C12.2656 18.7498 14.0612 18.1308 15.5177 16.9918L20.0969 21.571L21.5698 20.0981L16.9906 15.5189C18.1302 14.0623 18.7495 12.2662 18.75 10.4168C18.75 5.82204 15.0114 2.0835 10.4166 2.0835C5.82185 2.0835 2.08331 5.82204 2.08331 10.4168C2.08331 15.0116 5.82185 18.7502 10.4166 18.7502ZM10.4166 4.16683C13.8635 4.16683 16.6666 6.96995 16.6666 10.4168C16.6666 13.8637 13.8635 16.6668 10.4166 16.6668C6.96977 16.6668 4.16665 13.8637 4.16665 10.4168C4.16665 6.96995 6.96977 4.16683 10.4166 4.16683Z" fill="white"/>
<path d="M11.8875 8.94372C12.2823 9.33955 12.5 9.86247 12.5 10.4166H14.5833C14.5842 9.86916 14.4766 9.32694 14.2667 8.82131C14.0568 8.31567 13.7488 7.85666 13.3604 7.4708C11.7833 5.8958 9.04894 5.8958 7.4729 7.4708L8.94373 8.9458C9.7354 8.15622 11.1 8.1583 11.8875 8.94372Z" fill="white"/>
</svg>
