<svg width="25" height="25" viewBox="0 0 25 25" fill="none" xmlns="http://www.w3.org/2000/svg">
<path d="M22.2222 10.4167H21.5278V6.25005C21.5278 6.06588 21.4546 5.88924 21.3244 5.75901C21.1941 5.62877 21.0175 5.55561 20.8333 5.55561H4.16664C4.0022 5.55829 3.84215 5.50253 3.71498 5.39825C3.58781 5.29397 3.50178 5.14794 3.4722 4.98617V4.73617C3.50178 4.57439 3.58781 4.42836 3.71498 4.32408C3.84215 4.2198 4.0022 4.16404 4.16664 4.16672H20.5416C20.7258 4.16672 20.9025 4.09356 21.0327 3.96332C21.1629 3.83309 21.2361 3.65645 21.2361 3.47228C21.2361 3.2881 21.1629 3.11146 21.0327 2.98123C20.9025 2.851 20.7258 2.77783 20.5416 2.77783H4.16664C3.61411 2.77783 3.0842 2.99733 2.6935 3.38803C2.3028 3.77873 2.08331 4.30863 2.08331 4.86117C2.07843 4.94443 2.07843 5.0279 2.08331 5.11117V19.3959C2.08603 19.7698 2.16238 20.1395 2.30799 20.4839C2.4536 20.8283 2.66562 21.1406 2.93195 21.4031C3.19827 21.6656 3.51369 21.873 3.86018 22.0135C4.20667 22.1541 4.57746 22.225 4.95136 22.2223H20.8333C21.0175 22.2223 21.1941 22.1491 21.3244 22.0189C21.4546 21.8886 21.5278 21.712 21.5278 21.5278V17.3612H22.2222C22.4064 17.3612 22.583 17.288 22.7132 17.1578C22.8435 17.0275 22.9166 16.8509 22.9166 16.6667V11.1112C22.9166 10.927 22.8435 10.7504 22.7132 10.6201C22.583 10.4899 22.4064 10.4167 22.2222 10.4167ZM20.1389 20.8334H4.95136C4.56511 20.8371 4.19301 20.6882 3.91601 20.419C3.639 20.1498 3.4795 19.7821 3.4722 19.3959V6.86117C3.69761 6.92649 3.93217 6.95464 4.16664 6.9445H20.1389V10.4167H15.2778C14.3569 10.4167 13.4737 10.7825 12.8225 11.4337C12.1714 12.0849 11.8055 12.9681 11.8055 13.8889C11.8055 14.8098 12.1714 15.693 12.8225 16.3442C13.4737 16.9953 14.3569 17.3612 15.2778 17.3612H20.1389V20.8334ZM21.5278 15.9723H15.2778C14.7252 15.9723 14.1953 15.7528 13.8046 15.3621C13.4139 14.9714 13.1944 14.4415 13.1944 13.8889C13.1944 13.3364 13.4139 12.8065 13.8046 12.4158C14.1953 12.0251 14.7252 11.8056 15.2778 11.8056H21.5278V15.9723Z" fill="#222F33"/>
<path d="M15.9792 14.9305C16.5545 14.9305 17.0208 14.4641 17.0208 13.8888C17.0208 13.3135 16.5545 12.8472 15.9792 12.8472C15.4039 12.8472 14.9375 13.3135 14.9375 13.8888C14.9375 14.4641 15.4039 14.9305 15.9792 14.9305Z" fill="#222F33"/>
</svg>
