<svg width="22" height="22" viewBox="0 0 22 22" fill="none" xmlns="http://www.w3.org/2000/svg">
<path d="M19.8279 15.0799H7.03399L7.67637 13.7715L18.3498 13.7521C18.7107 13.7521 19.0201 13.4943 19.0846 13.1377L20.5627 4.86406C20.6014 4.64707 20.5434 4.42363 20.4016 4.25391C20.3315 4.17038 20.2441 4.10309 20.1454 4.05672C20.0467 4.01034 19.9391 3.98599 19.8301 3.98535L6.25196 3.94023L6.13594 3.39453C6.0629 3.04648 5.74923 2.79297 5.39258 2.79297H2.07325C1.87211 2.79297 1.67921 2.87287 1.53698 3.0151C1.39475 3.15733 1.31485 3.35023 1.31485 3.55137C1.31485 3.75251 1.39475 3.94541 1.53698 4.08764C1.67921 4.22986 1.87211 4.30977 2.07325 4.30977H4.77813L5.28516 6.72031L6.5334 12.7639L4.92637 15.3871C4.84292 15.4997 4.79265 15.6335 4.78126 15.7732C4.76987 15.9129 4.79781 16.0531 4.86192 16.1777C4.99083 16.4334 5.25079 16.5945 5.53868 16.5945H6.8879C6.60026 16.9766 6.4449 17.4419 6.44532 17.9201C6.44532 19.1361 7.4336 20.1244 8.64962 20.1244C9.86563 20.1244 10.8539 19.1361 10.8539 17.9201C10.8539 17.441 10.6949 16.9748 10.4113 16.5945H13.8725C13.5848 16.9766 13.4295 17.4419 13.4299 17.9201C13.4299 19.1361 14.4182 20.1244 15.6342 20.1244C16.8502 20.1244 17.8385 19.1361 17.8385 17.9201C17.8385 17.441 17.6795 16.9748 17.3959 16.5945H19.8301C20.2469 16.5945 20.5885 16.2551 20.5885 15.8361C20.5872 15.6352 20.5066 15.4429 20.3641 15.3012C20.2216 15.1596 20.0289 15.08 19.8279 15.0799ZM6.56778 5.43555L18.9385 5.47637L17.7268 12.2611L8.00938 12.2783L6.56778 5.43555ZM8.64962 18.599C8.27579 18.599 7.97071 18.2939 7.97071 17.9201C7.97071 17.5463 8.27579 17.2412 8.64962 17.2412C9.02344 17.2412 9.32852 17.5463 9.32852 17.9201C9.32852 18.1002 9.25699 18.2729 9.12967 18.4002C9.00236 18.5275 8.82967 18.599 8.64962 18.599ZM15.6342 18.599C15.2604 18.599 14.9553 18.2939 14.9553 17.9201C14.9553 17.5463 15.2604 17.2412 15.6342 17.2412C16.008 17.2412 16.3131 17.5463 16.3131 17.9201C16.3131 18.1002 16.2416 18.2729 16.1142 18.4002C15.9869 18.5275 15.8142 18.599 15.6342 18.599Z" fill="white"/>
</svg>
