<svg width="28" height="24" viewBox="0 0 28 24" fill="none" xmlns="http://www.w3.org/2000/svg">
<path d="M4 0H16C22.6274 0 28 5.37258 28 12C28 18.6274 22.6274 24 16 24H4V0Z" fill="#EB8B8B"/>
<path d="M11.8066 15.6543L11.4824 15.2737L11.2852 15.4416L11.3087 15.6996L11.8066 15.6543ZM12.8809 15.5566L13.3281 15.333L13.3247 15.3263L13.3211 15.3196L12.8809 15.5566ZM12.9883 19.8438L13.4241 20.0889L13.43 20.0783L13.4355 20.0674L12.9883 19.8438ZM1.01562 18.7402L1.15671 18.2606L0.834802 18.1659L0.625191 18.4279L1.01562 18.7402ZM2.61719 18.584L2.31188 18.1879L2.30484 18.1935L2.61719 18.584ZM2.40234 6.38672L2.23717 6.85866L2.24018 6.85969L2.40234 6.38672ZM1.99219 6.26953L1.85483 6.75029L1.86801 6.75406L1.88138 6.7571L1.99219 6.26953ZM1.5918 6.16211L1.44123 6.6389L1.45575 6.64349L1.47053 6.64718L1.5918 6.16211ZM1.25977 6.03516L1.02582 6.47705L1.03693 6.48293L1.04832 6.48825L1.25977 6.03516ZM1.08398 4.98047L1.21781 4.49871L0.917409 4.41527L0.71028 4.64829L1.08398 4.98047ZM12.5488 5.19531L12.2516 5.59745L12.2582 5.60218L12.5488 5.19531ZM12.793 8.04688L12.3107 7.91464L12.3088 7.92194L12.793 8.04688ZM12.5684 8.76953L12.1364 8.51754L12.1313 8.52671L12.5684 8.76953ZM11.6211 8.84766L11.3254 9.25086L11.3404 9.26183L11.3561 9.27166L11.6211 8.84766ZM11.4648 8.69141L10.9669 8.73667L10.9693 8.76327L10.9746 8.78946L11.4648 8.69141ZM11.0254 6.91406L10.6349 7.22643L10.6389 7.23122L11.0254 6.91406ZM10.2832 6.38672L10.1185 6.859L10.1316 6.86318L10.2832 6.38672ZM5.73242 6.44531L5.4031 6.06894L5.39529 6.07607L5.73242 6.44531ZM5.44922 6.92383L5.93733 7.0323L5.93812 7.02859L5.44922 6.92383ZM5.39062 11.7676H4.89062V12.2592L5.38215 12.2675L5.39062 11.7676ZM5.9668 11.7773L5.95832 12.2773H5.9668V11.7773ZM9.9707 11.3965L10.1943 10.9493L10.0393 10.8718L9.86966 10.9068L9.9707 11.3965ZM10.2148 11.7871L9.74048 11.9452L9.742 11.9496L10.2148 11.7871ZM10.1465 13.3301L10.1918 13.828L10.4826 13.8016L10.6024 13.5353L10.1465 13.3301ZM5.39062 13.1152L5.4465 12.6184L4.89062 12.5559V13.1152H5.39062ZM5.78125 18.5059L5.50876 18.9251L5.50962 18.9256L5.78125 18.5059ZM6.97266 18.7207V19.2209L6.9859 19.2205L6.97266 18.7207ZM8.44727 18.6816L8.46051 19.1815L8.46552 19.1813L8.44727 18.6816ZM11.2305 18.0859L11.5435 18.4758L11.5454 18.4743L11.2305 18.0859ZM12.1309 16.0349C12.2335 15.9475 12.3077 15.9297 12.3633 15.9297V14.9297C12.0282 14.9297 11.7313 15.0616 11.4824 15.2737L12.1309 16.0349ZM12.3633 15.9297C12.4269 15.9297 12.4785 15.932 12.5194 15.9356C12.5611 15.9394 12.586 15.9441 12.5982 15.947C12.6122 15.9505 12.5985 15.949 12.5713 15.9332C12.5433 15.9169 12.4846 15.8754 12.4406 15.7937L13.3211 15.3196C13.1926 15.081 12.9533 15.0045 12.8364 14.9758C12.6936 14.9408 12.5298 14.9297 12.3633 14.9297V15.9297ZM12.4336 15.7802C12.6321 16.1773 12.7617 16.9163 12.7617 18.0762H13.7617C13.7617 16.8923 13.6374 15.9517 13.3281 15.333L12.4336 15.7802ZM12.7617 18.0762C12.7617 18.8749 12.6687 19.365 12.5411 19.6201L13.4355 20.0674C13.6725 19.5934 13.7617 18.9051 13.7617 18.0762H12.7617ZM12.5525 19.5986C12.5398 19.6211 12.5446 19.6048 12.5759 19.5785C12.6126 19.5476 12.691 19.5 12.8027 19.5V20.5C13.1605 20.5 13.3506 20.2194 13.4241 20.0889L12.5525 19.5986ZM12.8027 19.5H2.02148V20.5H12.8027V19.5ZM2.02148 19.5C1.6675 19.5 1.48489 19.4443 1.40609 19.3973C1.37417 19.3782 1.36859 19.3663 1.3685 19.3661C1.3681 19.3654 1.35938 19.3509 1.35938 19.3066H0.359375C0.359375 19.7085 0.544286 20.0476 0.893717 20.256C1.20229 20.4401 1.60073 20.5 2.02148 20.5V19.5ZM1.35938 19.3066C1.35938 19.12 1.39997 19.0602 1.40606 19.0526L0.625191 18.4279C0.422946 18.6807 0.359375 18.9985 0.359375 19.3066H1.35938ZM0.874542 19.2199C1.13684 19.2971 1.39924 19.3379 1.66016 19.3379V18.3379C1.5044 18.3379 1.33711 18.3136 1.15671 18.2606L0.874542 19.2199ZM1.66016 19.3379C1.89239 19.3379 2.10894 19.3199 2.30348 19.2777L2.09105 18.3005C1.98612 18.3233 1.84459 18.3379 1.66016 18.3379V19.3379ZM2.30348 19.2777C2.53507 19.2273 2.74451 19.1224 2.92954 18.9744L2.30484 18.1935C2.22945 18.2539 2.15894 18.2857 2.09105 18.3005L2.30348 19.2777ZM2.92244 18.98C3.40599 18.6073 3.58594 18.018 3.58594 17.3633H2.58594C2.58594 17.8544 2.45339 18.0789 2.31193 18.188L2.92244 18.98ZM3.58594 17.3633V7.4707H2.58594V17.3633H3.58594ZM3.58594 7.4707C3.58594 7.12315 3.51618 6.79079 3.33796 6.50819C3.15544 6.21876 2.8857 6.02387 2.56451 5.91375L2.24018 6.85969C2.37472 6.90582 2.44677 6.96971 2.49211 7.04161C2.54176 7.12034 2.58594 7.25185 2.58594 7.4707H3.58594ZM2.56752 5.91479C2.4184 5.8626 2.26345 5.81843 2.103 5.78196L1.88138 6.7571C2.00738 6.78573 2.12587 6.81969 2.23717 6.85865L2.56752 5.91479ZM2.12955 5.78877C1.9878 5.74827 1.84897 5.71101 1.71306 5.67704L1.47053 6.64718C1.59504 6.67831 1.72314 6.71267 1.85483 6.75029L2.12955 5.78877ZM1.74236 5.68532C1.63542 5.65155 1.54562 5.61679 1.47121 5.58206L1.04832 6.48825C1.16923 6.54467 1.30078 6.59455 1.44123 6.6389L1.74236 5.68532ZM1.49371 5.59326C1.43381 5.56155 1.42002 5.54042 1.42154 5.5426C1.4225 5.54399 1.42485 5.54805 1.42656 5.55364C1.42822 5.55905 1.42773 5.56085 1.42773 5.55664H0.427734C0.427734 5.99125 0.687609 6.298 1.02582 6.47705L1.49371 5.59326ZM1.42773 5.55664C1.42773 5.45337 1.43806 5.38495 1.44937 5.34327C1.46047 5.30234 1.4689 5.30004 1.45769 5.31265L0.71028 4.64829C0.484199 4.90263 0.427734 5.24649 0.427734 5.55664H1.42773ZM0.950162 5.46223C1.10927 5.50642 1.27144 5.5293 1.43555 5.5293V4.5293C1.36527 4.5293 1.29307 4.51962 1.21781 4.49871L0.950162 5.46223ZM1.43555 5.5293H11.4258V4.5293H1.43555V5.5293ZM11.4258 5.5293C11.7131 5.5293 11.9294 5.54277 12.0826 5.56543C12.2561 5.59106 12.2816 5.61956 12.2516 5.5974L12.846 4.79322C12.6663 4.66039 12.4298 4.60588 12.2289 4.57618C12.0078 4.54349 11.7374 4.5293 11.4258 4.5293V5.5293ZM12.2582 5.60218C12.3152 5.64291 12.459 5.83667 12.459 6.48438H13.459C13.459 5.80395 13.3293 5.13834 12.8394 4.78845L12.2582 5.60218ZM12.459 6.48438C12.459 7.09848 12.4052 7.57034 12.3108 7.91466L13.2752 8.17909C13.4021 7.71612 13.459 7.14631 13.459 6.48438H12.459ZM12.3088 7.92194C12.2577 8.12024 12.2152 8.27255 12.1812 8.38187C12.1642 8.43663 12.1506 8.47649 12.1403 8.50381C12.128 8.53616 12.1265 8.53469 12.1365 8.5176L13.0002 9.02147C13.056 8.92596 13.1007 8.79273 13.1362 8.67868C13.1771 8.54712 13.2241 8.37716 13.2771 8.17181L12.3088 7.92194ZM12.1313 8.52671C12.1404 8.51034 12.1534 8.49308 12.1704 8.4776C12.1871 8.46227 12.2032 8.45275 12.2148 8.44739C12.2358 8.4377 12.2335 8.44531 12.1875 8.44531V9.44531C12.4746 9.44531 12.818 9.34972 13.0054 9.01235L12.1313 8.52671ZM12.1875 8.44531C12.0683 8.44531 11.9831 8.43805 11.9258 8.42817C11.8634 8.41742 11.8612 8.40808 11.8861 8.42366L11.3561 9.27166C11.5914 9.41871 11.9097 9.44531 12.1875 9.44531V8.44531ZM11.9168 8.44445C11.8983 8.43092 11.8846 8.42019 11.8748 8.41213C11.8647 8.40378 11.8613 8.40029 11.8623 8.40133C11.863 8.40202 11.8659 8.40487 11.8701 8.4098C11.8742 8.41459 11.8812 8.42301 11.8894 8.43488C11.8974 8.44648 11.9089 8.4646 11.9205 8.4888C11.9319 8.51268 11.9461 8.54808 11.9551 8.59335L10.9746 8.78946C10.9949 8.89111 11.0402 8.96505 11.0672 9.00409C11.0971 9.04735 11.1292 9.08244 11.1552 9.10844C11.207 9.16021 11.2673 9.20826 11.3254 9.25086L11.9168 8.44445ZM11.9628 8.64614C11.9192 8.16719 11.8585 7.75887 11.7769 7.42882C11.6986 7.11202 11.5883 6.81182 11.4119 6.5969L10.6389 7.23122C10.6708 7.27021 10.738 7.39319 10.8061 7.66884C10.871 7.93123 10.9258 8.28463 10.9669 8.73667L11.9628 8.64614ZM11.4158 6.60171C11.1528 6.27298 10.8255 6.03456 10.4348 5.91026L10.1316 6.86318C10.3138 6.92117 10.4813 7.03431 10.635 7.22641L11.4158 6.60171ZM10.4479 5.91462C10.0945 5.79136 9.66469 5.74023 9.17969 5.74023V6.74023C9.60614 6.74023 9.91197 6.78677 10.1185 6.85882L10.4479 5.91462ZM9.17969 5.74023H7.00195V6.74023H9.17969V5.74023ZM7.00195 5.74023C6.6442 5.74023 6.33614 5.7577 6.08726 5.7979C5.8628 5.83416 5.59461 5.90151 5.40317 6.06902L6.06167 6.8216C6.02648 6.8524 6.04801 6.81721 6.24673 6.78511C6.42102 6.75695 6.6696 6.74023 7.00195 6.74023V5.74023ZM5.39529 6.07607C5.17575 6.27652 5.02313 6.52596 4.96032 6.81906L5.93812 7.02859C5.95344 6.95712 5.98962 6.88754 6.06956 6.81456L5.39529 6.07607ZM4.96113 6.81536C4.91106 7.04066 4.89062 7.30871 4.89062 7.60742H5.89062C5.89062 7.34624 5.90925 7.15856 5.93731 7.03229L4.96113 6.81536ZM4.89062 7.60742V11.7676H5.89062V7.60742H4.89062ZM5.38215 12.2675L5.95832 12.2773L5.97527 11.2774L5.3991 11.2676L5.38215 12.2675ZM5.9668 12.2773C7.43476 12.2773 8.80365 12.1478 10.0717 11.8862L9.86966 10.9068C8.67681 11.1529 7.37644 11.2773 5.9668 11.2773V12.2773ZM9.7471 11.8437C9.71133 11.8258 9.68975 11.8063 9.68039 11.7968C9.67122 11.7874 9.67048 11.7843 9.6761 11.7933C9.68152 11.802 9.69057 11.8182 9.70222 11.8445C9.71376 11.8705 9.72668 11.9038 9.7405 11.9452L10.6892 11.629C10.6462 11.5 10.5931 11.3737 10.5241 11.2633C10.4576 11.1569 10.3538 11.029 10.1943 10.9493L9.7471 11.8437ZM9.742 11.9496C9.79667 12.1087 9.82227 12.2622 9.82227 12.4121H10.8223C10.8223 12.1454 10.7762 11.8822 10.6877 11.6246L9.742 11.9496ZM9.82227 12.4121C9.82227 12.7089 9.77279 12.9421 9.69052 13.1249L10.6024 13.5353C10.7546 13.1972 10.8223 12.8185 10.8223 12.4121H9.82227ZM10.1012 12.8321C9.69023 12.8695 9.21107 12.8887 8.66211 12.8887V13.8887C9.23294 13.8887 9.74336 13.8688 10.1918 13.828L10.1012 12.8321ZM8.66211 12.8887C8.1347 12.8887 7.07166 12.8011 5.4465 12.6184L5.33475 13.6121C6.95178 13.7939 8.06972 13.8887 8.66211 13.8887V12.8887ZM4.89062 13.1152V17.5195H5.89062V13.1152H4.89062ZM4.89062 17.5195C4.89062 18.0761 5.03868 18.6195 5.50876 18.9251L6.05374 18.0866C6.00299 18.0536 5.89062 17.9395 5.89062 17.5195H4.89062ZM5.50962 18.9256C5.86356 19.1547 6.3927 19.2207 6.97266 19.2207V18.2207C6.40678 18.2207 6.14165 18.1435 6.05288 18.0861L5.50962 18.9256ZM6.9859 19.2205L8.46051 19.1815L8.43403 18.1818L6.95942 18.2209L6.9859 19.2205ZM8.46552 19.1813C9.19452 19.1547 9.8144 19.0902 10.317 18.9826C10.8095 18.8772 11.2388 18.7205 11.5435 18.4758L10.9174 17.6961C10.7924 17.7964 10.543 17.9116 10.1078 18.0047C9.68267 18.0957 9.12579 18.1565 8.42901 18.182L8.46552 19.1813ZM11.5454 18.4743C11.8763 18.206 12.0922 17.8518 12.1946 17.4334L11.2233 17.1955C11.1695 17.4152 11.0664 17.5752 10.9156 17.6976L11.5454 18.4743ZM12.1946 17.4334C12.282 17.0766 12.3262 16.7177 12.3262 16.3574H11.3262C11.3262 16.6352 11.2922 16.9143 11.2233 17.1955L12.1946 17.4334ZM12.3262 16.3574C12.3262 16.0308 12.3198 15.7767 12.3046 15.609L11.3087 15.6996C11.3195 15.8183 11.3262 16.033 11.3262 16.3574H12.3262ZM15.5176 18.7695L15.6757 18.2952L15.3427 18.1842L15.1251 18.4597L15.5176 18.7695ZM16.8359 17.8223L17.3357 17.8365L17.3359 17.8294V17.8223H16.8359ZM16.6992 4.72656L16.2932 5.0184L16.2967 5.02316L16.6992 4.72656ZM15.5371 4.46289L15.6307 4.95406L15.6393 4.95241L15.6479 4.95046L15.5371 4.46289ZM15.2441 4.46289L14.9791 4.88689L15.0089 4.90552L15.0411 4.9198L15.2441 4.46289ZM15.1172 4.33594L14.6895 4.59511L14.6932 4.60094L15.1172 4.33594ZM15.6055 3.51562L15.8999 3.91975L15.9019 3.91824L15.6055 3.51562ZM18.9746 3.92578L19.4717 3.87204L19.4714 3.86924L18.9746 3.92578ZM19.0137 17.8613H18.5137V17.8709L18.514 17.8805L19.0137 17.8613ZM19.5703 18.7988L19.4122 19.2733L19.4212 19.2761L19.5703 18.7988ZM19.9316 18.8867L19.8381 19.3779L19.8422 19.3787L19.9316 18.8867ZM20.3223 18.9844L20.1642 19.4587L20.1762 19.4627L20.1884 19.4661L20.3223 18.9844ZM20.5957 19.1016L20.8994 18.7044L20.8911 18.698L20.8824 18.6919L20.5957 19.1016ZM20.6055 20.0488L20.4842 20.5339L20.7955 20.6117L20.9959 20.3612L20.6055 20.0488ZM16.8652 19.5C16.3896 19.5 16.1029 19.4432 15.9526 19.3744C15.8837 19.3429 15.8675 19.3196 15.8686 19.321C15.8736 19.3279 15.8711 19.3332 15.8711 19.3164H14.8711C14.8711 19.5275 14.9309 19.7322 15.0604 19.9099C15.1859 20.0822 15.3565 20.2014 15.5366 20.2838C15.8844 20.4429 16.3447 20.5 16.8652 20.5V19.5ZM15.8711 19.3164C15.8711 19.1316 15.9104 19.0789 15.91 19.0794L15.1251 18.4597C14.9295 18.7076 14.8711 19.0195 14.8711 19.3164H15.8711ZM15.3595 19.2439C15.5566 19.3096 15.7569 19.3477 15.957 19.3477V18.3477C15.8838 18.3477 15.7911 18.3336 15.6757 18.2952L15.3595 19.2439ZM15.957 19.3477C16.3455 19.3477 16.7161 19.226 16.9812 18.9167C17.2322 18.6239 17.3243 18.2361 17.3357 17.8365L16.3361 17.808C16.328 18.0921 16.2639 18.2169 16.2219 18.2659C16.1941 18.2984 16.135 18.3477 15.957 18.3477V19.3477ZM17.3359 17.8223V5.5957H16.3359V17.8223H17.3359ZM17.3359 5.5957C17.3359 5.35439 17.3241 5.13947 17.2957 4.95892C17.2698 4.79443 17.221 4.59186 17.1017 4.42996L16.2967 5.02316C16.2685 4.98496 16.2881 4.98909 16.3078 5.11432C16.325 5.22349 16.3359 5.38129 16.3359 5.5957H17.3359ZM17.1052 4.43474C16.8347 4.05836 16.4173 3.91406 15.9766 3.91406V4.91406C16.1999 4.91406 16.2643 4.9781 16.2932 5.01838L17.1052 4.43474ZM15.9766 3.91406C15.7903 3.91406 15.6066 3.93435 15.4263 3.97532L15.6479 4.95046C15.7541 4.92633 15.8634 4.91406 15.9766 4.91406V3.91406ZM15.4436 3.97172C15.4199 3.97623 15.4011 3.979 15.3867 3.9806C15.3721 3.98222 15.364 3.98242 15.3613 3.98242C15.3584 3.98242 15.3646 3.98217 15.3776 3.98434C15.3904 3.98647 15.4155 3.99188 15.4472 4.00598L15.0411 4.9198C15.2525 5.01377 15.4871 4.9814 15.6307 4.95406L15.4436 3.97172ZM15.5091 4.03889C15.5143 4.04214 15.5206 4.04689 15.5269 4.05318C15.5332 4.05948 15.5379 4.06574 15.5412 4.07094L14.6932 4.60094C14.766 4.7174 14.8627 4.8141 14.9791 4.88689L15.5091 4.03889ZM15.5448 4.07679C15.5639 4.10841 15.5763 4.15275 15.5734 4.19708C15.5709 4.23462 15.5592 4.24579 15.5712 4.22547C15.601 4.17552 15.691 4.07196 15.8999 3.91974L15.311 3.11151C15.0642 3.29132 14.845 3.49049 14.712 3.71398C14.5657 3.95965 14.5019 4.28548 14.6896 4.59509L15.5448 4.07679ZM15.9019 3.91824C16.5561 3.43656 17.161 3.22461 17.7246 3.22461V2.22461C16.895 2.22461 16.0871 2.54001 15.309 3.11301L15.9019 3.91824ZM17.7246 3.22461C18.0048 3.22461 18.1564 3.2981 18.2473 3.38543C18.3438 3.47818 18.4403 3.65248 18.4778 3.98233L19.4714 3.86924C19.4178 3.3983 19.2603 2.97202 18.9402 2.66438C18.6144 2.35131 18.1867 2.22461 17.7246 2.22461V3.22461ZM18.4775 3.97952C18.5014 4.20087 18.5137 4.43674 18.5137 4.6875H19.5137C19.5137 4.4044 19.4999 4.13246 19.4717 3.87204L18.4775 3.97952ZM18.5137 4.6875V17.8613H19.5137V4.6875H18.5137ZM18.514 17.8805C18.5258 18.1863 18.5887 18.4811 18.7376 18.7318C18.893 18.9936 19.1249 19.1774 19.4122 19.2732L19.7284 18.3245C19.6642 18.3031 19.6275 18.272 19.5974 18.2213C19.5607 18.1595 19.5211 18.0441 19.5133 17.8421L18.514 17.8805ZM19.4212 19.2761C19.5477 19.3156 19.6874 19.3492 19.8381 19.3779L20.0252 18.3955C19.9024 18.3722 19.8012 18.3471 19.7194 18.3216L19.4212 19.2761ZM19.8422 19.3787C19.9661 19.4012 20.073 19.4283 20.1642 19.4587L20.4804 18.51C20.3372 18.4623 20.1836 18.4243 20.0211 18.3948L19.8422 19.3787ZM20.1884 19.4661C20.2301 19.4777 20.2605 19.4886 20.2816 19.4977C20.303 19.5068 20.3105 19.5122 20.309 19.5112L20.8824 18.6919C20.753 18.6013 20.6021 18.5432 20.4561 18.5026L20.1884 19.4661ZM20.292 19.4987C20.2835 19.4923 20.2753 19.484 20.2683 19.4748C20.2615 19.4657 20.2581 19.4584 20.2567 19.4552C20.2546 19.4498 20.2617 19.4644 20.2617 19.5117H21.2617C21.2617 19.2266 21.1744 18.9147 20.8994 18.7044L20.292 19.4987ZM20.2617 19.5117C20.2617 19.6673 20.2262 19.7225 20.215 19.7365L20.9959 20.3612C21.1931 20.1147 21.2617 19.8118 21.2617 19.5117H20.2617ZM20.7267 19.5638C20.5331 19.5154 20.2725 19.5 19.9805 19.5V20.5C20.2613 20.5 20.4174 20.5172 20.4842 20.5339L20.7267 19.5638ZM19.9805 19.5H16.8652V20.5H19.9805V19.5Z" fill="white"/>
<path d="M24.3838 8.8125L24.4468 8.5192L24.0954 8.44366L24.0839 8.80292L24.3838 8.8125ZM24.3091 11.1504L24.0092 11.1408L24.003 11.3366L24.1797 11.4211L24.3091 11.1504ZM24.8057 11.3877L24.941 11.1199L24.935 11.117L24.8057 11.3877ZM25.9746 12.293L26.2242 12.1266L26.2228 12.1245L25.9746 12.293ZM25.6406 14.4946L25.4493 14.2636L25.448 14.2646L25.6406 14.4946ZM24.1816 15.0615L24.1508 14.7631L23.889 14.7902L23.8818 15.0533L24.1816 15.0615ZM24.1641 15.6987L24.2666 15.9807L24.4583 15.9109L24.4639 15.707L24.1641 15.6987ZM23.8169 15.7075L23.9118 15.4229L23.9045 15.4205L23.8972 15.4185L23.8169 15.7075ZM23.6807 15.6416L23.8636 15.4038L23.8581 15.3997L23.6807 15.6416ZM23.5488 15.4175L23.2488 15.4097V15.4175H23.5488ZM23.5576 15.0791L23.8575 15.0869L23.8652 14.7911L23.5695 14.7793L23.5576 15.0791ZM22.2173 14.7847L22.3438 14.5127L22.3435 14.5125L22.2173 14.7847ZM21.7998 12.9653L21.5685 12.7743L21.5525 12.7936L21.54 12.8153L21.7998 12.9653ZM22.3535 13.0312L22.6527 13.0093L22.6507 12.9817L22.6436 12.9549L22.3535 13.0312ZM23.5796 14.4595L23.5355 14.7562L23.8689 14.8057L23.8794 14.4689L23.5796 14.4595ZM23.6543 12.0776L23.9541 12.087L23.9606 11.8825L23.7725 11.8019L23.6543 12.0776ZM23.5312 12.0249L23.6494 11.7492L23.648 11.7486L23.5312 12.0249ZM22.2612 11.2559L22.0508 11.4697L22.0514 11.4702L22.2612 11.2559ZM22.3008 8.72461L22.4888 8.95836L22.49 8.95744L22.3008 8.72461ZM23.7817 8.19727L23.8046 8.49639L24.0733 8.47582L24.0816 8.20652L23.7817 8.19727ZM23.8037 7.48535L23.6695 7.21702L23.5094 7.29711L23.5039 7.4761L23.8037 7.48535ZM24.1377 7.47217L24.0378 7.75507L24.0475 7.75848L24.0574 7.76122L24.1377 7.47217ZM24.2783 7.53809L24.1038 7.7824L24.1137 7.7889L24.2783 7.53809ZM24.4189 7.77539L24.7189 7.78497V7.77539H24.4189ZM24.4058 8.18848L24.1059 8.17891L24.0965 8.47333L24.3907 8.4881L24.4058 8.18848ZM25.8867 8.76855L25.6358 8.93302L25.6371 8.93496L25.8867 8.76855ZM25.9482 9.80566L25.6578 9.73036L25.6566 9.73545L25.9482 9.80566ZM25.834 10.1133L26.0666 10.3028L26.0668 10.3025L25.834 10.1133ZM23.7598 8.77734L24.0596 8.78681L24.0703 8.44979L23.7343 8.47843L23.7598 8.77734ZM22.7578 9.37939L22.4818 9.26175L22.4798 9.26668L22.7578 9.37939ZM23.6938 10.8647L23.5617 11.1341L23.979 11.3389L23.9937 10.8742L23.6938 10.8647ZM24.2036 14.4727L23.9038 14.4633L23.893 14.8073L24.2353 14.771L24.2036 14.4727ZM25.1309 13.8838L24.8562 13.7632L24.8559 13.7639L25.1309 13.8838ZM24.9463 12.8467L25.169 12.6455L25.1641 12.6404L24.9463 12.8467ZM24.2695 12.3677L24.4079 12.1015L23.9846 11.8814L23.9697 12.3583L24.2695 12.3677ZM25.5671 10.1177C25.5671 9.71967 25.4921 9.36683 25.3148 9.08386L24.8063 9.40247C24.9044 9.55895 24.9671 9.78912 24.9671 10.1177H25.5671ZM25.3148 9.08386C25.1243 8.77994 24.8196 8.59932 24.4468 8.5192L24.3207 9.1058C24.575 9.16045 24.7214 9.26693 24.8063 9.40247L25.3148 9.08386ZM24.0839 8.80292L24.0092 11.1408L24.6089 11.16L24.6836 8.82208L24.0839 8.80292ZM24.1797 11.4211L24.6763 11.6584L24.935 11.117L24.4384 10.8797L24.1797 11.4211ZM24.6704 11.6555C25.2131 11.9296 25.5509 12.203 25.7264 12.4615L26.2228 12.1245C25.9647 11.7443 25.5233 11.4141 24.9409 11.1199L24.6704 11.6555ZM25.725 12.4594C25.8757 12.6854 25.9471 12.9195 25.9471 13.1675H26.5471C26.5471 12.7944 26.4368 12.4455 26.2242 12.1266L25.725 12.4594ZM25.9471 13.1675C25.9471 13.4411 25.8987 13.6504 25.8176 13.8082L26.3513 14.0824C26.487 13.8184 26.5471 13.5091 26.5471 13.1675H25.9471ZM25.8176 13.8082C25.7283 13.9821 25.6064 14.1335 25.4493 14.2636L25.832 14.7257C26.0499 14.5452 26.2239 14.3304 26.3513 14.0824L25.8176 13.8082ZM25.448 14.2646C25.125 14.5351 24.6988 14.7064 24.1508 14.7631L24.2125 15.3599C24.8539 15.2936 25.4004 15.087 25.8332 14.7247L25.448 14.2646ZM23.8818 15.0533L23.8642 15.6905L24.4639 15.707L24.4815 15.0698L23.8818 15.0533ZM24.0615 15.4168C24.0245 15.4303 23.9977 15.4339 23.9795 15.4339V16.0339C24.0785 16.0339 24.1748 16.0141 24.2666 15.9807L24.0615 15.4168ZM23.9795 15.4339C23.956 15.4339 23.9339 15.4303 23.9118 15.4229L23.722 15.9921C23.8054 16.0199 23.8916 16.0339 23.9795 16.0339V15.4339ZM23.8972 15.4185C23.8765 15.4127 23.8671 15.4065 23.8636 15.4038L23.4978 15.8794C23.5704 15.9353 23.6518 15.973 23.7366 15.9966L23.8972 15.4185ZM23.8581 15.3997C23.8388 15.3856 23.8371 15.3795 23.8404 15.3851C23.8421 15.3881 23.8445 15.3931 23.8463 15.3997C23.8481 15.4063 23.8488 15.4125 23.8488 15.4175H23.2488C23.2488 15.6244 23.3624 15.7802 23.5033 15.8835L23.8581 15.3997ZM23.8487 15.4253L23.8575 15.0869L23.2577 15.0713L23.2489 15.4097L23.8487 15.4253ZM23.5695 14.7793C23.0844 14.76 22.6783 14.6682 22.3438 14.5127L22.0908 15.0567C22.5121 15.2527 22.9996 15.3571 23.5457 15.3789L23.5695 14.7793ZM22.3435 14.5125C22.1528 14.4241 22.0318 14.3268 21.959 14.2304C21.8893 14.138 21.8537 14.0336 21.8537 13.9058H21.2537C21.2537 14.1588 21.3287 14.3913 21.4802 14.5919C21.6286 14.7885 21.8393 14.9401 22.0911 15.0568L22.3435 14.5125ZM21.8537 13.9058C21.8537 13.6132 21.9231 13.3518 22.0596 13.1153L21.54 12.8153C21.3484 13.1472 21.2537 13.5128 21.2537 13.9058H21.8537ZM22.0311 13.1564C22.0313 13.1561 22.0303 13.1573 22.0279 13.1592C22.0255 13.1611 22.0227 13.1627 22.02 13.1639C22.0142 13.1665 22.0151 13.1643 22.0283 13.1643V12.5643C21.8529 12.5643 21.6877 12.63 21.5685 12.7743L22.0311 13.1564ZM22.0283 13.1643C22.0609 13.1643 22.0838 13.1667 22.0987 13.1695C22.1136 13.1723 22.117 13.1748 22.1132 13.1729C22.1086 13.1705 22.0971 13.1634 22.0852 13.149C22.0731 13.1343 22.0664 13.119 22.0634 13.1076L22.6436 12.9549C22.6059 12.8116 22.5122 12.7033 22.3873 12.6391C22.2739 12.5809 22.1464 12.5643 22.0283 12.5643V13.1643ZM22.0543 13.0532C22.0894 13.5309 22.2211 13.9382 22.4862 14.2336L22.9327 13.8328C22.7877 13.6712 22.6821 13.4105 22.6527 13.0093L22.0543 13.0532ZM22.4862 14.2336C22.7481 14.5255 23.1081 14.6928 23.5355 14.7562L23.6236 14.1627C23.301 14.1148 23.081 13.998 22.9327 13.8328L22.4862 14.2336ZM23.8794 14.4689L23.9541 12.087L23.3544 12.0682L23.2797 14.4501L23.8794 14.4689ZM23.7725 11.8019L23.6494 11.7492L23.4131 12.3006L23.5361 12.3534L23.7725 11.8019ZM23.648 11.7486C23.0964 11.5154 22.7115 11.2768 22.4711 11.0415L22.0514 11.4702C22.3676 11.7798 22.8293 12.0539 23.4145 12.3012L23.648 11.7486ZM22.4716 11.042C22.1675 10.7428 22.0163 10.3797 22.0163 9.93311H21.4163C21.4163 10.5353 21.6284 11.0541 22.0508 11.4697L22.4716 11.042ZM22.0163 9.93311C22.0163 9.53345 22.1686 9.21595 22.4888 8.95835L22.1127 8.49086C21.6536 8.86022 21.4163 9.34839 21.4163 9.93311H22.0163ZM22.49 8.95744C22.8062 8.70052 23.2367 8.53987 23.8046 8.49639L23.7588 7.89814C23.1022 7.94841 22.5454 8.13932 22.1116 8.49178L22.49 8.95744ZM24.0816 8.20652L24.1036 7.49461L23.5039 7.4761L23.4819 8.18801L24.0816 8.20652ZM23.9379 7.75368C23.9492 7.74801 23.959 7.7458 23.9707 7.7458V7.1458C23.8652 7.1458 23.7637 7.16996 23.6695 7.21702L23.9379 7.75368ZM23.9707 7.7458C24.0037 7.7458 24.0249 7.7505 24.0378 7.75507L24.2375 7.18927C24.1509 7.15868 24.0607 7.1458 23.9707 7.1458V7.7458ZM24.0574 7.76122C24.0793 7.7673 24.0938 7.77494 24.1039 7.78221L24.4527 7.29397C24.3808 7.24264 24.3016 7.20633 24.218 7.18311L24.0574 7.76122ZM24.1137 7.7889C24.1306 7.8 24.1301 7.80395 24.1257 7.7965C24.1236 7.79289 24.1216 7.78834 24.1203 7.78348C24.119 7.7787 24.1189 7.77568 24.1189 7.77539H24.7189C24.7189 7.56016 24.6054 7.39393 24.4429 7.28727L24.1137 7.7889ZM24.1191 7.76582L24.1059 8.17891L24.7056 8.19805L24.7188 7.78496L24.1191 7.76582ZM24.3907 8.4881C25.129 8.52516 25.4906 8.71153 25.6358 8.93301L26.1376 8.6041C25.8258 8.12831 25.2001 7.92797 24.4208 7.88885L24.3907 8.4881ZM25.6371 8.93496C25.6758 8.99307 25.7098 9.09275 25.7098 9.26074H26.3098C26.3098 9.01857 26.2617 8.79013 26.1363 8.60214L25.6371 8.93496ZM25.7098 9.26074C25.7098 9.44656 25.6911 9.60207 25.6578 9.73038L26.2386 9.88095C26.2874 9.69285 26.3098 9.48508 26.3098 9.26074H25.7098ZM25.6566 9.73545C25.6391 9.80795 25.6233 9.86066 25.6099 9.89676C25.6033 9.91461 25.5982 9.92563 25.5953 9.93143C25.5919 9.93797 25.5934 9.9337 25.6012 9.9241L26.0668 10.3025C26.1169 10.2408 26.1496 10.167 26.1723 10.1057C26.197 10.0392 26.2193 9.96158 26.2399 9.87588L25.6566 9.73545ZM25.6014 9.92378C25.609 9.91441 25.6139 9.91524 25.6017 9.91958C25.5872 9.92475 25.5558 9.93193 25.5 9.93193V10.5319C25.6984 10.5319 25.9197 10.4831 26.0666 10.3028L25.6014 9.92378ZM25.5 9.93193C25.4727 9.93193 25.4555 9.9302 25.4465 9.92872C25.4367 9.92711 25.4428 9.92683 25.4574 9.93403C25.4732 9.94175 25.5037 9.96069 25.5298 9.99906C25.5573 10.0396 25.5671 10.083 25.5671 10.1177H24.9671C24.9671 10.1904 24.9866 10.2672 25.0335 10.3363C25.079 10.4032 25.1386 10.4459 25.1932 10.4727C25.294 10.5221 25.4075 10.5319 25.5 10.5319V9.93193ZM23.7343 8.47843C23.1505 8.52818 22.6922 8.7682 22.4818 9.26176L23.0338 9.49702C23.1281 9.27574 23.3377 9.1144 23.7852 9.07626L23.7343 8.47843ZM22.4798 9.26668C22.4196 9.41516 22.3919 9.57417 22.3919 9.73975H22.9919C22.9919 9.64165 23.0081 9.56043 23.0358 9.49211L22.4798 9.26668ZM22.3919 9.73975C22.3919 9.91273 22.4268 10.0783 22.5012 10.2313L23.0408 9.96886C23.0097 9.90507 22.9919 9.83043 22.9919 9.73975H22.3919ZM22.5012 10.2313C22.5695 10.3716 22.6614 10.4982 22.7742 10.6111L23.1985 10.1868C23.1297 10.118 23.078 10.0454 23.0408 9.96886L22.5012 10.2313ZM22.7742 10.6111C22.9626 10.7994 23.2313 10.9719 23.5617 11.1341L23.826 10.5954C23.5236 10.447 23.3206 10.309 23.1985 10.1868L22.7742 10.6111ZM23.9937 10.8742L24.0596 8.78681L23.4599 8.76787L23.394 10.8553L23.9937 10.8742ZM24.2353 14.771C24.7788 14.7132 25.2017 14.4721 25.4059 14.0037L24.8559 13.7639C24.7612 13.981 24.566 14.1325 24.1719 14.1743L24.2353 14.771ZM25.4056 14.0044C25.4758 13.8444 25.51 13.6742 25.51 13.4971H24.91C24.91 13.5954 24.8914 13.683 24.8562 13.7632L25.4056 14.0044ZM25.51 13.4971C25.51 13.3257 25.4808 13.1613 25.4125 13.012L24.8668 13.2614C24.8923 13.3172 24.91 13.3931 24.91 13.4971H25.51ZM25.4125 13.012C25.3518 12.8793 25.2697 12.7572 25.1689 12.6456L24.7237 13.0478C24.7869 13.1178 24.8337 13.1891 24.8668 13.2614L25.4125 13.012ZM25.1641 12.6404C24.9753 12.4411 24.7187 12.2631 24.4079 12.1015L24.1311 12.6338C24.4063 12.7769 24.6009 12.9183 24.7285 13.053L25.1641 12.6404ZM23.9697 12.3583L23.9038 14.4633L24.5035 14.482L24.5694 12.3771L23.9697 12.3583Z" fill="#2F4E2C"/>
</svg>
